%
M48
M72
T01C0.0240
T02C0.0276
T03C0.0320
T04C0.0354
T05C0.0394
T06C0.0400
T07C0.0440
T08C0.1260
T09C0.1300
%
T01
X16503Y5143
X20903Y7143
X18103Y8023
X12103Y7623
X11143Y7143
T02
X19403Y3843
X20403Y3843
X26403Y8843
X26403Y9843
T03
X24903Y8843
X23903Y8843
X22903Y8843
X21903Y8843
X20903Y8843
X19903Y8843
X18903Y8843
X17903Y8843
X16903Y8843
X15903Y8843
X14903Y8843
X13903Y8843
X12903Y8843
X11903Y8843
X11903Y5843
X12903Y5843
X13903Y5843
X14903Y5843
X15903Y5843
X16903Y5843
X17903Y5843
X18903Y5843
X19903Y5843
X20903Y5843
X21903Y5843
X22903Y5843
X23903Y5843
X24903Y5843
X10403Y4293
X10403Y2393
T04
X26403Y3843
X26403Y6843
T05
X7903Y7093
X6903Y6593
X7903Y6093
X6903Y5593
X7903Y5093
X6903Y7593
X7903Y8093
X6903Y8593
T06
X15623Y4233
X18183Y4233
X18183Y2453
X15623Y2453
X20403Y1343
X21403Y1343
X22403Y1343
X23403Y1343
X24403Y1343
X25403Y1343
T07
X4403Y2343
X5903Y2343
X7403Y2343
T08
X4403Y4593
X4403Y9093
T09
X9903Y7843
X23403Y3843
X13403Y1843
M30
