G75*
G70*
%OFA0B0*%
%FSLAX24Y24*%
%IPPOS*%
%LPD*%
%AMOC8*
5,1,8,0,0,1.08239X$1,22.5*
%
%ADD10C,0.0000*%
%ADD11C,0.0520*%
%ADD12C,0.0740*%
%ADD13R,0.0740X0.0740*%
%ADD14C,0.0520*%
%ADD15C,0.0650*%
%ADD16C,0.0660*%
%ADD17C,0.0600*%
%ADD18C,0.0100*%
%ADD19C,0.0400*%
D10*
X002903Y000343D02*
X002903Y010839D01*
X027273Y010839D01*
X027273Y000343D01*
X002903Y000343D01*
X003773Y004593D02*
X003775Y004643D01*
X003781Y004693D01*
X003791Y004742D01*
X003805Y004790D01*
X003822Y004837D01*
X003843Y004882D01*
X003868Y004926D01*
X003896Y004967D01*
X003928Y005006D01*
X003962Y005043D01*
X003999Y005077D01*
X004039Y005107D01*
X004081Y005134D01*
X004125Y005158D01*
X004171Y005179D01*
X004218Y005195D01*
X004266Y005208D01*
X004316Y005217D01*
X004365Y005222D01*
X004416Y005223D01*
X004466Y005220D01*
X004515Y005213D01*
X004564Y005202D01*
X004612Y005187D01*
X004658Y005169D01*
X004703Y005147D01*
X004746Y005121D01*
X004787Y005092D01*
X004826Y005060D01*
X004862Y005025D01*
X004894Y004987D01*
X004924Y004947D01*
X004951Y004904D01*
X004974Y004860D01*
X004993Y004814D01*
X005009Y004766D01*
X005021Y004717D01*
X005029Y004668D01*
X005033Y004618D01*
X005033Y004568D01*
X005029Y004518D01*
X005021Y004469D01*
X005009Y004420D01*
X004993Y004372D01*
X004974Y004326D01*
X004951Y004282D01*
X004924Y004239D01*
X004894Y004199D01*
X004862Y004161D01*
X004826Y004126D01*
X004787Y004094D01*
X004746Y004065D01*
X004703Y004039D01*
X004658Y004017D01*
X004612Y003999D01*
X004564Y003984D01*
X004515Y003973D01*
X004466Y003966D01*
X004416Y003963D01*
X004365Y003964D01*
X004316Y003969D01*
X004266Y003978D01*
X004218Y003991D01*
X004171Y004007D01*
X004125Y004028D01*
X004081Y004052D01*
X004039Y004079D01*
X003999Y004109D01*
X003962Y004143D01*
X003928Y004180D01*
X003896Y004219D01*
X003868Y004260D01*
X003843Y004304D01*
X003822Y004349D01*
X003805Y004396D01*
X003791Y004444D01*
X003781Y004493D01*
X003775Y004543D01*
X003773Y004593D01*
X009253Y007843D02*
X009255Y007893D01*
X009261Y007943D01*
X009271Y007993D01*
X009284Y008041D01*
X009301Y008089D01*
X009322Y008135D01*
X009346Y008179D01*
X009374Y008221D01*
X009405Y008261D01*
X009439Y008298D01*
X009476Y008333D01*
X009515Y008364D01*
X009556Y008393D01*
X009600Y008418D01*
X009646Y008440D01*
X009693Y008458D01*
X009741Y008472D01*
X009790Y008483D01*
X009840Y008490D01*
X009890Y008493D01*
X009941Y008492D01*
X009991Y008487D01*
X010041Y008478D01*
X010089Y008466D01*
X010137Y008449D01*
X010183Y008429D01*
X010228Y008406D01*
X010271Y008379D01*
X010311Y008349D01*
X010349Y008316D01*
X010384Y008280D01*
X010417Y008241D01*
X010446Y008200D01*
X010472Y008157D01*
X010495Y008112D01*
X010514Y008065D01*
X010529Y008017D01*
X010541Y007968D01*
X010549Y007918D01*
X010553Y007868D01*
X010553Y007818D01*
X010549Y007768D01*
X010541Y007718D01*
X010529Y007669D01*
X010514Y007621D01*
X010495Y007574D01*
X010472Y007529D01*
X010446Y007486D01*
X010417Y007445D01*
X010384Y007406D01*
X010349Y007370D01*
X010311Y007337D01*
X010271Y007307D01*
X010228Y007280D01*
X010183Y007257D01*
X010137Y007237D01*
X010089Y007220D01*
X010041Y007208D01*
X009991Y007199D01*
X009941Y007194D01*
X009890Y007193D01*
X009840Y007196D01*
X009790Y007203D01*
X009741Y007214D01*
X009693Y007228D01*
X009646Y007246D01*
X009600Y007268D01*
X009556Y007293D01*
X009515Y007322D01*
X009476Y007353D01*
X009439Y007388D01*
X009405Y007425D01*
X009374Y007465D01*
X009346Y007507D01*
X009322Y007551D01*
X009301Y007597D01*
X009284Y007645D01*
X009271Y007693D01*
X009261Y007743D01*
X009255Y007793D01*
X009253Y007843D01*
X003773Y009093D02*
X003775Y009143D01*
X003781Y009193D01*
X003791Y009242D01*
X003805Y009290D01*
X003822Y009337D01*
X003843Y009382D01*
X003868Y009426D01*
X003896Y009467D01*
X003928Y009506D01*
X003962Y009543D01*
X003999Y009577D01*
X004039Y009607D01*
X004081Y009634D01*
X004125Y009658D01*
X004171Y009679D01*
X004218Y009695D01*
X004266Y009708D01*
X004316Y009717D01*
X004365Y009722D01*
X004416Y009723D01*
X004466Y009720D01*
X004515Y009713D01*
X004564Y009702D01*
X004612Y009687D01*
X004658Y009669D01*
X004703Y009647D01*
X004746Y009621D01*
X004787Y009592D01*
X004826Y009560D01*
X004862Y009525D01*
X004894Y009487D01*
X004924Y009447D01*
X004951Y009404D01*
X004974Y009360D01*
X004993Y009314D01*
X005009Y009266D01*
X005021Y009217D01*
X005029Y009168D01*
X005033Y009118D01*
X005033Y009068D01*
X005029Y009018D01*
X005021Y008969D01*
X005009Y008920D01*
X004993Y008872D01*
X004974Y008826D01*
X004951Y008782D01*
X004924Y008739D01*
X004894Y008699D01*
X004862Y008661D01*
X004826Y008626D01*
X004787Y008594D01*
X004746Y008565D01*
X004703Y008539D01*
X004658Y008517D01*
X004612Y008499D01*
X004564Y008484D01*
X004515Y008473D01*
X004466Y008466D01*
X004416Y008463D01*
X004365Y008464D01*
X004316Y008469D01*
X004266Y008478D01*
X004218Y008491D01*
X004171Y008507D01*
X004125Y008528D01*
X004081Y008552D01*
X004039Y008579D01*
X003999Y008609D01*
X003962Y008643D01*
X003928Y008680D01*
X003896Y008719D01*
X003868Y008760D01*
X003843Y008804D01*
X003822Y008849D01*
X003805Y008896D01*
X003791Y008944D01*
X003781Y008993D01*
X003775Y009043D01*
X003773Y009093D01*
X012753Y001843D02*
X012755Y001893D01*
X012761Y001943D01*
X012771Y001993D01*
X012784Y002041D01*
X012801Y002089D01*
X012822Y002135D01*
X012846Y002179D01*
X012874Y002221D01*
X012905Y002261D01*
X012939Y002298D01*
X012976Y002333D01*
X013015Y002364D01*
X013056Y002393D01*
X013100Y002418D01*
X013146Y002440D01*
X013193Y002458D01*
X013241Y002472D01*
X013290Y002483D01*
X013340Y002490D01*
X013390Y002493D01*
X013441Y002492D01*
X013491Y002487D01*
X013541Y002478D01*
X013589Y002466D01*
X013637Y002449D01*
X013683Y002429D01*
X013728Y002406D01*
X013771Y002379D01*
X013811Y002349D01*
X013849Y002316D01*
X013884Y002280D01*
X013917Y002241D01*
X013946Y002200D01*
X013972Y002157D01*
X013995Y002112D01*
X014014Y002065D01*
X014029Y002017D01*
X014041Y001968D01*
X014049Y001918D01*
X014053Y001868D01*
X014053Y001818D01*
X014049Y001768D01*
X014041Y001718D01*
X014029Y001669D01*
X014014Y001621D01*
X013995Y001574D01*
X013972Y001529D01*
X013946Y001486D01*
X013917Y001445D01*
X013884Y001406D01*
X013849Y001370D01*
X013811Y001337D01*
X013771Y001307D01*
X013728Y001280D01*
X013683Y001257D01*
X013637Y001237D01*
X013589Y001220D01*
X013541Y001208D01*
X013491Y001199D01*
X013441Y001194D01*
X013390Y001193D01*
X013340Y001196D01*
X013290Y001203D01*
X013241Y001214D01*
X013193Y001228D01*
X013146Y001246D01*
X013100Y001268D01*
X013056Y001293D01*
X013015Y001322D01*
X012976Y001353D01*
X012939Y001388D01*
X012905Y001425D01*
X012874Y001465D01*
X012846Y001507D01*
X012822Y001551D01*
X012801Y001597D01*
X012784Y001645D01*
X012771Y001693D01*
X012761Y001743D01*
X012755Y001793D01*
X012753Y001843D01*
X022753Y003843D02*
X022755Y003893D01*
X022761Y003943D01*
X022771Y003993D01*
X022784Y004041D01*
X022801Y004089D01*
X022822Y004135D01*
X022846Y004179D01*
X022874Y004221D01*
X022905Y004261D01*
X022939Y004298D01*
X022976Y004333D01*
X023015Y004364D01*
X023056Y004393D01*
X023100Y004418D01*
X023146Y004440D01*
X023193Y004458D01*
X023241Y004472D01*
X023290Y004483D01*
X023340Y004490D01*
X023390Y004493D01*
X023441Y004492D01*
X023491Y004487D01*
X023541Y004478D01*
X023589Y004466D01*
X023637Y004449D01*
X023683Y004429D01*
X023728Y004406D01*
X023771Y004379D01*
X023811Y004349D01*
X023849Y004316D01*
X023884Y004280D01*
X023917Y004241D01*
X023946Y004200D01*
X023972Y004157D01*
X023995Y004112D01*
X024014Y004065D01*
X024029Y004017D01*
X024041Y003968D01*
X024049Y003918D01*
X024053Y003868D01*
X024053Y003818D01*
X024049Y003768D01*
X024041Y003718D01*
X024029Y003669D01*
X024014Y003621D01*
X023995Y003574D01*
X023972Y003529D01*
X023946Y003486D01*
X023917Y003445D01*
X023884Y003406D01*
X023849Y003370D01*
X023811Y003337D01*
X023771Y003307D01*
X023728Y003280D01*
X023683Y003257D01*
X023637Y003237D01*
X023589Y003220D01*
X023541Y003208D01*
X023491Y003199D01*
X023441Y003194D01*
X023390Y003193D01*
X023340Y003196D01*
X023290Y003203D01*
X023241Y003214D01*
X023193Y003228D01*
X023146Y003246D01*
X023100Y003268D01*
X023056Y003293D01*
X023015Y003322D01*
X022976Y003353D01*
X022939Y003388D01*
X022905Y003425D01*
X022874Y003465D01*
X022846Y003507D01*
X022822Y003551D01*
X022801Y003597D01*
X022784Y003645D01*
X022771Y003693D01*
X022761Y003743D01*
X022755Y003793D01*
X022753Y003843D01*
D11*
X022903Y005583D02*
X022903Y006103D01*
X021903Y006103D02*
X021903Y005583D01*
X020903Y005583D02*
X020903Y006103D01*
X019903Y006103D02*
X019903Y005583D01*
X018903Y005583D02*
X018903Y006103D01*
X017903Y006103D02*
X017903Y005583D01*
X016903Y005583D02*
X016903Y006103D01*
X015903Y006103D02*
X015903Y005583D01*
X014903Y005583D02*
X014903Y006103D01*
X013903Y006103D02*
X013903Y005583D01*
X012903Y005583D02*
X012903Y006103D01*
X011903Y006103D02*
X011903Y005583D01*
X011903Y008583D02*
X011903Y009103D01*
X012903Y009103D02*
X012903Y008583D01*
X013903Y008583D02*
X013903Y009103D01*
X014903Y009103D02*
X014903Y008583D01*
X015903Y008583D02*
X015903Y009103D01*
X016903Y009103D02*
X016903Y008583D01*
X017903Y008583D02*
X017903Y009103D01*
X018903Y009103D02*
X018903Y008583D01*
X019903Y008583D02*
X019903Y009103D01*
X020903Y009103D02*
X020903Y008583D01*
X021903Y008583D02*
X021903Y009103D01*
X022903Y009103D02*
X022903Y008583D01*
X023903Y008583D02*
X023903Y009103D01*
X024903Y009103D02*
X024903Y008583D01*
X024903Y006103D02*
X024903Y005583D01*
X023903Y005583D02*
X023903Y006103D01*
D12*
X026403Y006843D03*
X026403Y003843D03*
X018183Y004233D03*
X015623Y004233D03*
X015623Y002453D03*
X018183Y002453D03*
X007903Y005093D03*
X006903Y005593D03*
X007903Y006093D03*
X006903Y006593D03*
X007903Y007093D03*
X006903Y007593D03*
X007903Y008093D03*
D13*
X006903Y008593D03*
D14*
X010403Y004293D03*
X010403Y002393D03*
D15*
X019403Y003843D03*
X020403Y003843D03*
X026403Y008843D03*
X026403Y009843D03*
D16*
X007403Y002673D02*
X007403Y002013D01*
X005903Y002013D02*
X005903Y002673D01*
X004403Y002673D02*
X004403Y002013D01*
D17*
X020403Y001643D02*
X020403Y001043D01*
X021403Y001043D02*
X021403Y001643D01*
X022403Y001643D02*
X022403Y001043D01*
X023403Y001043D02*
X023403Y001643D01*
X024403Y001643D02*
X024403Y001043D01*
X025403Y001043D02*
X025403Y001643D01*
D18*
X022403Y001343D02*
X022343Y001383D01*
X022343Y002583D01*
X020503Y004423D01*
X020503Y007223D01*
X019393Y008333D01*
X019903Y008843D01*
X019393Y008333D02*
X018903Y008823D01*
X018903Y008843D01*
X017943Y008823D02*
X017903Y008843D01*
X017943Y008823D02*
X018903Y007863D01*
X018903Y005843D01*
X018903Y005783D01*
X019383Y005303D01*
X019383Y003863D01*
X019403Y003843D01*
X019463Y003783D01*
X019463Y003303D01*
X021383Y001383D01*
X021403Y001343D01*
X020403Y001343D02*
X020343Y001303D01*
X017463Y004183D01*
X017463Y008263D01*
X016903Y008823D01*
X016903Y008843D01*
X018103Y008023D02*
X018103Y006023D01*
X017943Y005863D01*
X017903Y005843D01*
X016903Y005863D02*
X016903Y005843D01*
X016903Y005863D02*
X014583Y008183D01*
X010983Y008183D01*
X010983Y008343D01*
X010183Y009143D01*
X006343Y009143D01*
X006343Y008183D01*
X006903Y007623D01*
X006903Y007593D01*
X007903Y007093D02*
X007943Y007063D01*
X007943Y006743D01*
X010423Y006743D01*
X010823Y007143D01*
X011143Y007143D01*
X012103Y007623D02*
X010583Y006103D01*
X007943Y006103D01*
X007903Y006093D01*
X007903Y005093D02*
X007863Y005063D01*
X007863Y002983D01*
X015623Y002983D01*
X015623Y002453D01*
X015623Y004233D02*
X015623Y004263D01*
X016503Y005143D01*
X015623Y004263D02*
X013463Y004263D01*
X011943Y005783D01*
X011903Y005843D01*
X007863Y002983D02*
X007863Y002743D01*
X007463Y002343D01*
X007403Y002343D01*
X005943Y002343D02*
X005903Y002343D01*
X005943Y002343D02*
X005943Y009543D01*
X024263Y009543D01*
X024903Y008903D01*
X024903Y008843D01*
X025863Y009303D02*
X026403Y009843D01*
X025863Y009303D02*
X025863Y004343D01*
X026343Y003863D01*
X026403Y003843D01*
X021903Y005843D02*
X021863Y005863D01*
X020903Y006823D01*
X020903Y007143D01*
X019903Y005843D02*
X019943Y005783D01*
X020263Y005463D01*
X020263Y003943D01*
X020343Y003863D01*
X020403Y003843D01*
D19*
X016503Y005143D03*
X020903Y007143D03*
X018103Y008023D03*
X012103Y007623D03*
X011143Y007143D03*
M02*
