G75*
G70*
%OFA0B0*%
%FSLAX24Y24*%
%IPPOS*%
%LPD*%
%AMOC8*
5,1,8,0,0,1.08239X$1,22.5*
%
%ADD10C,0.0600*%
%ADD11C,0.1340*%
%ADD12C,0.0820*%
%ADD13R,0.0820X0.0820*%
%ADD14C,0.0600*%
%ADD15C,0.0730*%
%ADD16C,0.1380*%
%ADD17C,0.0740*%
%ADD18C,0.0680*%
%ADD19C,0.0480*%
D10*
X011903Y005583D02*
X011903Y006103D01*
X012903Y006103D02*
X012903Y005583D01*
X013903Y005583D02*
X013903Y006103D01*
X014903Y006103D02*
X014903Y005583D01*
X015903Y005583D02*
X015903Y006103D01*
X016903Y006103D02*
X016903Y005583D01*
X017903Y005583D02*
X017903Y006103D01*
X018903Y006103D02*
X018903Y005583D01*
X019903Y005583D02*
X019903Y006103D01*
X020903Y006103D02*
X020903Y005583D01*
X021903Y005583D02*
X021903Y006103D01*
X022903Y006103D02*
X022903Y005583D01*
X023903Y005583D02*
X023903Y006103D01*
X024903Y006103D02*
X024903Y005583D01*
X024903Y008583D02*
X024903Y009103D01*
X023903Y009103D02*
X023903Y008583D01*
X022903Y008583D02*
X022903Y009103D01*
X021903Y009103D02*
X021903Y008583D01*
X020903Y008583D02*
X020903Y009103D01*
X019903Y009103D02*
X019903Y008583D01*
X018903Y008583D02*
X018903Y009103D01*
X017903Y009103D02*
X017903Y008583D01*
X016903Y008583D02*
X016903Y009103D01*
X015903Y009103D02*
X015903Y008583D01*
X014903Y008583D02*
X014903Y009103D01*
X013903Y009103D02*
X013903Y008583D01*
X012903Y008583D02*
X012903Y009103D01*
X011903Y009103D02*
X011903Y008583D01*
D11*
X004403Y009093D03*
X004403Y004593D03*
D12*
X006903Y005593D03*
X007903Y006093D03*
X006903Y006593D03*
X007903Y007093D03*
X006903Y007593D03*
X007903Y008093D03*
X007903Y005093D03*
X015623Y004233D03*
X018183Y004233D03*
X018183Y002453D03*
X015623Y002453D03*
X026403Y003843D03*
X026403Y006843D03*
D13*
X006903Y008593D03*
D14*
X010403Y004293D03*
X010403Y002393D03*
D15*
X019403Y003843D03*
X020403Y003843D03*
X026403Y008843D03*
X026403Y009843D03*
D16*
X023403Y003843D03*
X013403Y001843D03*
X009903Y007843D03*
D17*
X004403Y002673D02*
X004403Y002013D01*
X005903Y002013D02*
X005903Y002673D01*
X007403Y002673D02*
X007403Y002013D01*
D18*
X020403Y001643D02*
X020403Y001043D01*
X021403Y001043D02*
X021403Y001643D01*
X022403Y001643D02*
X022403Y001043D01*
X023403Y001043D02*
X023403Y001643D01*
X024403Y001643D02*
X024403Y001043D01*
X025403Y001043D02*
X025403Y001643D01*
D19*
X016503Y005143D03*
X020903Y007143D03*
X018103Y008023D03*
X012103Y007623D03*
X011143Y007143D03*
M02*
