G75*
G70*
%OFA0B0*%
%FSLAX24Y24*%
%IPPOS*%
%LPD*%
%AMOC8*
5,1,8,0,0,1.08239X$1,22.5*
%
%ADD10C,0.0060*%
%ADD11C,0.0080*%
%ADD12C,0.0160*%
%ADD13C,0.0050*%
D10*
X003703Y001143D02*
X003703Y003543D01*
X008103Y003543D01*
X008103Y001143D01*
X003703Y001143D01*
X003933Y001013D02*
X004253Y001013D01*
X004360Y000906D01*
X004360Y000693D01*
X004253Y000586D01*
X003933Y000586D01*
X003933Y000373D02*
X003933Y001013D01*
X004577Y000906D02*
X004577Y000800D01*
X004684Y000693D01*
X004897Y000693D01*
X005004Y000586D01*
X005004Y000479D01*
X004897Y000373D01*
X004684Y000373D01*
X004577Y000479D01*
X005222Y000373D02*
X005435Y000373D01*
X005328Y000373D02*
X005328Y001013D01*
X005222Y001013D02*
X005435Y001013D01*
X005004Y000906D02*
X004897Y001013D01*
X004684Y001013D01*
X004577Y000906D01*
X005651Y000373D02*
X006078Y001013D01*
X006296Y000800D02*
X006403Y000800D01*
X006509Y000693D01*
X006616Y000800D01*
X006723Y000693D01*
X006723Y000373D01*
X006509Y000373D02*
X006509Y000693D01*
X006296Y000800D02*
X006296Y000373D01*
X006940Y000373D02*
X007261Y000373D01*
X007367Y000479D01*
X007367Y000586D01*
X007261Y000693D01*
X006940Y000693D01*
X007261Y000693D02*
X007367Y000800D01*
X007367Y000906D01*
X007261Y001013D01*
X006940Y001013D01*
X006940Y000373D01*
X007585Y000373D02*
X007585Y000800D01*
X007799Y001013D01*
X008012Y000800D01*
X008012Y000373D01*
X008230Y000373D02*
X008230Y001013D01*
X008550Y001013D01*
X008657Y000906D01*
X008657Y000693D01*
X008550Y000586D01*
X008230Y000586D01*
X008443Y000586D02*
X008657Y000373D01*
X008012Y000693D02*
X007585Y000693D01*
X007403Y001743D02*
X005603Y001743D01*
X005403Y001743D01*
X005203Y001743D01*
X005003Y001743D01*
X004803Y001743D01*
X004603Y001743D01*
X004403Y001743D01*
X004403Y001793D01*
X004603Y001793D02*
X004603Y001743D01*
X004803Y001743D02*
X004803Y001943D01*
X005003Y001743D02*
X005003Y002943D01*
X004803Y002943D01*
X004803Y002743D01*
X004803Y002943D02*
X004603Y002943D01*
X004603Y002893D01*
X004603Y002943D02*
X004403Y002943D01*
X004403Y002893D01*
X005003Y002943D02*
X005203Y002943D01*
X005403Y002943D01*
X005603Y002943D01*
X007403Y002943D01*
X007403Y002893D01*
X005603Y002943D02*
X005603Y002843D01*
X005403Y002943D02*
X005403Y002643D01*
X005203Y002943D02*
X005203Y001743D01*
X005403Y001743D02*
X005403Y002043D01*
X005603Y001843D02*
X005603Y001743D01*
X007403Y001743D02*
X007403Y001793D01*
X009703Y002193D02*
X009703Y004493D01*
X009705Y004544D01*
X009710Y004595D01*
X009720Y004645D01*
X009733Y004695D01*
X009749Y004743D01*
X009769Y004790D01*
X009793Y004836D01*
X009819Y004879D01*
X009849Y004921D01*
X009882Y004960D01*
X009917Y004997D01*
X009955Y005031D01*
X009996Y005062D01*
X010038Y005091D01*
X010083Y005116D01*
X010129Y005137D01*
X010177Y005156D01*
X010226Y005170D01*
X010276Y005181D01*
X010326Y005189D01*
X010377Y005193D01*
X010429Y005193D01*
X010480Y005189D01*
X010530Y005181D01*
X010580Y005170D01*
X010629Y005156D01*
X010677Y005137D01*
X010723Y005116D01*
X010768Y005091D01*
X010810Y005062D01*
X010851Y005031D01*
X010889Y004997D01*
X010924Y004960D01*
X010957Y004921D01*
X010987Y004879D01*
X011013Y004836D01*
X011037Y004790D01*
X011057Y004743D01*
X011073Y004695D01*
X011086Y004645D01*
X011096Y004595D01*
X011101Y004544D01*
X011103Y004493D01*
X011103Y002193D01*
X011101Y002142D01*
X011096Y002091D01*
X011086Y002041D01*
X011073Y001991D01*
X011057Y001943D01*
X011037Y001896D01*
X011013Y001850D01*
X010987Y001807D01*
X010957Y001765D01*
X010924Y001726D01*
X010889Y001689D01*
X010851Y001655D01*
X010810Y001624D01*
X010768Y001595D01*
X010723Y001570D01*
X010677Y001549D01*
X010629Y001530D01*
X010580Y001516D01*
X010530Y001505D01*
X010480Y001497D01*
X010429Y001493D01*
X010377Y001493D01*
X010326Y001497D01*
X010276Y001505D01*
X010226Y001516D01*
X010177Y001530D01*
X010129Y001549D01*
X010083Y001570D01*
X010038Y001595D01*
X009996Y001624D01*
X009955Y001655D01*
X009917Y001689D01*
X009882Y001726D01*
X009849Y001765D01*
X009819Y001807D01*
X009793Y001850D01*
X009769Y001896D01*
X009749Y001943D01*
X009733Y001991D01*
X009720Y002041D01*
X009710Y002091D01*
X009705Y002142D01*
X009703Y002193D01*
X010403Y002843D02*
X010403Y003093D01*
X010753Y003093D01*
X010753Y003243D02*
X010053Y003243D01*
X010053Y003443D01*
X010753Y003443D01*
X010753Y003243D01*
X010403Y003093D02*
X010053Y003093D01*
X010053Y003593D02*
X010403Y003593D01*
X010403Y003843D01*
X010403Y003593D02*
X010753Y003593D01*
X011933Y002800D02*
X012146Y003013D01*
X012146Y002373D01*
X011933Y002373D02*
X012360Y002373D01*
X012577Y002479D02*
X012684Y002373D01*
X012897Y002373D01*
X013004Y002479D01*
X013004Y002586D01*
X012897Y002693D01*
X012577Y002693D01*
X012577Y002479D01*
X012577Y002693D02*
X012791Y002906D01*
X013004Y003013D01*
X013222Y003013D02*
X013435Y002800D01*
X013649Y003013D01*
X013649Y002373D01*
X013866Y002373D02*
X013866Y003013D01*
X013973Y002800D02*
X014186Y002800D01*
X014293Y002693D01*
X014293Y002373D01*
X014511Y002373D02*
X014938Y002373D01*
X014938Y002800D02*
X014511Y002373D01*
X013973Y002800D02*
X013866Y002693D01*
X014511Y002800D02*
X014938Y002800D01*
X013222Y003013D02*
X013222Y002373D01*
X018933Y002373D02*
X019360Y002800D01*
X019360Y002906D01*
X019253Y003013D01*
X019039Y003013D01*
X018933Y002906D01*
X019577Y002906D02*
X019684Y003013D01*
X019897Y003013D01*
X020004Y002906D01*
X020004Y002800D01*
X019577Y002373D01*
X020004Y002373D01*
X020222Y002373D02*
X020542Y002373D01*
X020649Y002479D01*
X020649Y002693D01*
X020542Y002800D01*
X020222Y002800D01*
X020222Y002159D01*
X020153Y001843D02*
X019903Y001593D01*
X019903Y001093D01*
X020153Y000843D01*
X020653Y000843D01*
X020903Y001093D01*
X021153Y000843D01*
X021653Y000843D01*
X021903Y001093D01*
X021903Y001593D01*
X021653Y001843D01*
X021153Y001843D01*
X020903Y001593D01*
X020903Y001093D01*
X020933Y000800D02*
X021039Y000800D01*
X021146Y000693D01*
X021253Y000800D01*
X021360Y000693D01*
X021360Y000373D01*
X021146Y000373D02*
X021146Y000693D01*
X020933Y000800D02*
X020933Y000373D01*
X021577Y000373D02*
X021897Y000373D01*
X022004Y000479D01*
X022004Y000693D01*
X021897Y000800D01*
X021577Y000800D01*
X021577Y000159D01*
X022222Y000373D02*
X022649Y000800D01*
X022653Y000843D02*
X022153Y000843D01*
X021903Y001093D01*
X022222Y000800D02*
X022649Y000373D01*
X023186Y000373D02*
X023186Y001013D01*
X022866Y000693D01*
X023293Y000693D01*
X023153Y000843D02*
X023653Y000843D01*
X023903Y001093D01*
X024153Y000843D01*
X024653Y000843D01*
X024903Y001093D01*
X025153Y000843D01*
X025653Y000843D01*
X025903Y001093D01*
X025903Y001593D01*
X025653Y001843D01*
X025153Y001843D01*
X024903Y001593D01*
X024903Y001093D01*
X024907Y001013D02*
X025120Y001013D01*
X025227Y000906D01*
X024800Y000479D01*
X024907Y000373D01*
X025120Y000373D01*
X025227Y000479D01*
X025227Y000906D01*
X024907Y001013D02*
X024800Y000906D01*
X024800Y000479D01*
X024582Y000479D02*
X024476Y000373D01*
X024262Y000373D01*
X024155Y000479D01*
X023938Y000373D02*
X023511Y000373D01*
X023938Y000800D01*
X023938Y000906D01*
X023831Y001013D01*
X023618Y001013D01*
X023511Y000906D01*
X023153Y000843D02*
X022903Y001093D01*
X022653Y000843D01*
X022903Y001093D02*
X022903Y001593D01*
X023153Y001843D01*
X023653Y001843D01*
X023903Y001593D01*
X024153Y001843D01*
X024653Y001843D01*
X024903Y001593D01*
X023903Y001593D02*
X023903Y001093D01*
X024155Y001013D02*
X024155Y000693D01*
X024369Y000800D01*
X024476Y000800D01*
X024582Y000693D01*
X024582Y000479D01*
X024582Y001013D02*
X024155Y001013D01*
X022903Y001593D02*
X022653Y001843D01*
X022153Y001843D01*
X021903Y001593D01*
X020903Y001593D02*
X020653Y001843D01*
X020153Y001843D01*
X020866Y002373D02*
X020866Y003013D01*
X021293Y003013D01*
X021080Y002693D02*
X020866Y002693D01*
X019360Y002373D02*
X018933Y002373D01*
X024933Y003373D02*
X025360Y003373D01*
X025146Y003373D02*
X025146Y004013D01*
X024933Y003800D01*
X025577Y003906D02*
X025684Y004013D01*
X025897Y004013D01*
X026004Y003906D01*
X025577Y003479D01*
X025684Y003373D01*
X025897Y003373D01*
X026004Y003479D01*
X026004Y003906D01*
X026222Y004013D02*
X026222Y003373D01*
X026222Y003586D02*
X026542Y003373D01*
X026222Y003586D02*
X026542Y003800D01*
X025577Y003906D02*
X025577Y003479D01*
X025703Y006243D02*
X025703Y008443D01*
X011103Y008443D01*
X011103Y007593D01*
X011133Y007591D01*
X011163Y007586D01*
X011192Y007577D01*
X011219Y007564D01*
X011245Y007549D01*
X011269Y007530D01*
X011290Y007509D01*
X011309Y007485D01*
X011324Y007459D01*
X011337Y007432D01*
X011346Y007403D01*
X011351Y007373D01*
X011353Y007343D01*
X011351Y007313D01*
X011346Y007283D01*
X011337Y007254D01*
X011324Y007227D01*
X011309Y007201D01*
X011290Y007177D01*
X011269Y007156D01*
X011245Y007137D01*
X011219Y007122D01*
X011192Y007109D01*
X011163Y007100D01*
X011133Y007095D01*
X011103Y007093D01*
X011103Y006243D01*
X025703Y006243D01*
X025222Y009159D02*
X025222Y009800D01*
X025542Y009800D01*
X025649Y009693D01*
X025649Y009479D01*
X025542Y009373D01*
X025222Y009373D01*
X025004Y009373D02*
X024577Y009373D01*
X025004Y009800D01*
X025004Y009906D01*
X024897Y010013D01*
X024684Y010013D01*
X024577Y009906D01*
X024360Y009906D02*
X024253Y010013D01*
X024039Y010013D01*
X023933Y009906D01*
X024360Y009906D02*
X024360Y009800D01*
X023933Y009373D01*
X024360Y009373D01*
X025866Y009373D02*
X025866Y010013D01*
X026293Y010013D01*
X026080Y009693D02*
X025866Y009693D01*
X012360Y005373D02*
X011933Y005373D01*
X012146Y005373D02*
X012146Y006013D01*
X011933Y005800D01*
X011897Y009373D02*
X011684Y009373D01*
X011577Y009479D01*
X011577Y009586D01*
X011684Y009693D01*
X011897Y009693D01*
X012004Y009586D01*
X012004Y009479D01*
X011897Y009373D01*
X011360Y009373D02*
X010933Y009373D01*
X011360Y009800D01*
X011360Y009906D01*
X011253Y010013D01*
X011039Y010013D01*
X010933Y009906D01*
X011577Y009906D02*
X011577Y009800D01*
X011684Y009693D01*
X011897Y009693D02*
X012004Y009800D01*
X012004Y009906D01*
X011897Y010013D01*
X011684Y010013D01*
X011577Y009906D01*
D11*
X008340Y009843D02*
X003222Y009843D01*
X003222Y003843D01*
X008340Y003843D01*
X008340Y009843D01*
X016053Y004543D02*
X017753Y004543D01*
X018103Y003736D02*
X018103Y002943D01*
X016203Y003343D02*
X016205Y003395D01*
X016211Y003447D01*
X016221Y003499D01*
X016234Y003549D01*
X016251Y003599D01*
X016272Y003647D01*
X016297Y003693D01*
X016325Y003737D01*
X016356Y003779D01*
X016390Y003819D01*
X016427Y003856D01*
X016467Y003890D01*
X016509Y003921D01*
X016553Y003949D01*
X016599Y003974D01*
X016647Y003995D01*
X016697Y004012D01*
X016747Y004025D01*
X016799Y004035D01*
X016851Y004041D01*
X016903Y004043D01*
X016955Y004041D01*
X017007Y004035D01*
X017059Y004025D01*
X017109Y004012D01*
X017159Y003995D01*
X017207Y003974D01*
X017253Y003949D01*
X017297Y003921D01*
X017339Y003890D01*
X017379Y003856D01*
X017416Y003819D01*
X017450Y003779D01*
X017481Y003737D01*
X017509Y003693D01*
X017534Y003647D01*
X017555Y003599D01*
X017572Y003549D01*
X017585Y003499D01*
X017595Y003447D01*
X017601Y003395D01*
X017603Y003343D01*
X017601Y003291D01*
X017595Y003239D01*
X017585Y003187D01*
X017572Y003137D01*
X017555Y003087D01*
X017534Y003039D01*
X017509Y002993D01*
X017481Y002949D01*
X017450Y002907D01*
X017416Y002867D01*
X017379Y002830D01*
X017339Y002796D01*
X017297Y002765D01*
X017253Y002737D01*
X017207Y002712D01*
X017159Y002691D01*
X017109Y002674D01*
X017059Y002661D01*
X017007Y002651D01*
X016955Y002645D01*
X016903Y002643D01*
X016851Y002645D01*
X016799Y002651D01*
X016747Y002661D01*
X016697Y002674D01*
X016647Y002691D01*
X016599Y002712D01*
X016553Y002737D01*
X016509Y002765D01*
X016467Y002796D01*
X016427Y002830D01*
X016390Y002867D01*
X016356Y002907D01*
X016325Y002949D01*
X016297Y002993D01*
X016272Y003039D01*
X016251Y003087D01*
X016234Y003137D01*
X016221Y003187D01*
X016211Y003239D01*
X016205Y003291D01*
X016203Y003343D01*
X015703Y002943D02*
X015703Y003747D01*
X016053Y002143D02*
X017753Y002143D01*
X019903Y003593D02*
X019903Y004093D01*
X026103Y004343D02*
X026403Y004343D01*
X026403Y004243D01*
X026403Y004343D02*
X026703Y004343D01*
X026703Y006343D01*
X026403Y006343D01*
X026403Y006443D01*
X026403Y006343D02*
X026103Y006343D01*
X026103Y004343D01*
X026153Y009343D02*
X026653Y009343D01*
D12*
X011303Y004493D02*
X011303Y002193D01*
X011301Y002134D01*
X011295Y002076D01*
X011286Y002017D01*
X011272Y001960D01*
X011255Y001904D01*
X011234Y001849D01*
X011210Y001795D01*
X011182Y001743D01*
X011151Y001693D01*
X011117Y001645D01*
X011080Y001600D01*
X011039Y001557D01*
X010996Y001516D01*
X010951Y001479D01*
X010903Y001445D01*
X010853Y001414D01*
X010801Y001386D01*
X010747Y001362D01*
X010692Y001341D01*
X010636Y001324D01*
X010579Y001310D01*
X010520Y001301D01*
X010462Y001295D01*
X010403Y001293D01*
X010344Y001295D01*
X010286Y001301D01*
X010227Y001310D01*
X010170Y001324D01*
X010114Y001341D01*
X010059Y001362D01*
X010005Y001386D01*
X009953Y001414D01*
X009903Y001445D01*
X009855Y001479D01*
X009810Y001516D01*
X009767Y001557D01*
X009726Y001600D01*
X009689Y001645D01*
X009655Y001693D01*
X009624Y001743D01*
X009596Y001795D01*
X009572Y001849D01*
X009551Y001904D01*
X009534Y001960D01*
X009520Y002017D01*
X009511Y002076D01*
X009505Y002134D01*
X009503Y002193D01*
X009503Y004493D01*
X009505Y004552D01*
X009511Y004610D01*
X009520Y004669D01*
X009534Y004726D01*
X009551Y004782D01*
X009572Y004837D01*
X009596Y004891D01*
X009624Y004943D01*
X009655Y004993D01*
X009689Y005041D01*
X009726Y005086D01*
X009767Y005129D01*
X009810Y005170D01*
X009855Y005207D01*
X009903Y005241D01*
X009953Y005272D01*
X010005Y005300D01*
X010059Y005324D01*
X010114Y005345D01*
X010170Y005362D01*
X010227Y005376D01*
X010286Y005385D01*
X010344Y005391D01*
X010403Y005393D01*
X010462Y005391D01*
X010520Y005385D01*
X010579Y005376D01*
X010636Y005362D01*
X010692Y005345D01*
X010747Y005324D01*
X010801Y005300D01*
X010853Y005272D01*
X010903Y005241D01*
X010951Y005207D01*
X010996Y005170D01*
X011039Y005129D01*
X011080Y005086D01*
X011117Y005041D01*
X011151Y004993D01*
X011182Y004943D01*
X011210Y004891D01*
X011234Y004837D01*
X011255Y004782D01*
X011272Y004726D01*
X011286Y004669D01*
X011295Y004610D01*
X011301Y004552D01*
X011303Y004493D01*
D13*
X007878Y001643D02*
X007803Y001718D01*
X007653Y001718D01*
X007578Y001643D01*
X007878Y001643D02*
X007878Y001568D01*
X007578Y001268D01*
X007878Y001268D01*
X004178Y001268D02*
X003878Y001268D01*
X004028Y001268D02*
X004028Y001718D01*
X003878Y001568D01*
M02*
