G75*
G70*
%OFA0B0*%
%FSLAX24Y24*%
%IPPOS*%
%LPD*%
%AMOC8*
5,1,8,0,0,1.08239X$1,22.5*
%
%ADD10C,0.0060*%
%ADD11C,0.0080*%
D10*
X001828Y007601D02*
X002328Y007601D01*
X002578Y007851D01*
X002828Y007601D01*
X003328Y007601D01*
X003578Y007851D01*
X003578Y008351D01*
X003328Y008601D01*
X002828Y008601D01*
X002578Y008351D01*
X002578Y007851D01*
X001828Y007601D02*
X001578Y007851D01*
X001578Y008351D01*
X001828Y008601D01*
X002328Y008601D01*
X002578Y008351D01*
X003578Y008351D02*
X003828Y008601D01*
X004328Y008601D01*
X004578Y008351D01*
X004828Y008601D01*
X005328Y008601D01*
X005578Y008351D01*
X005828Y008601D01*
X006328Y008601D01*
X006578Y008351D01*
X006578Y007851D01*
X006328Y007601D01*
X005828Y007601D01*
X005578Y007851D01*
X005328Y007601D01*
X004828Y007601D01*
X004578Y007851D01*
X004328Y007601D01*
X003828Y007601D01*
X003578Y007851D01*
X004578Y007851D02*
X004578Y008351D01*
X005578Y008351D02*
X005578Y007851D01*
X006578Y007851D02*
X006828Y007601D01*
X007328Y007601D01*
X007578Y007851D01*
X007828Y007601D01*
X008328Y007601D01*
X008578Y007851D01*
X008828Y007601D01*
X009328Y007601D01*
X009578Y007851D01*
X009578Y008351D01*
X009328Y008601D01*
X008828Y008601D01*
X008578Y008351D01*
X008578Y007851D01*
X007578Y007851D02*
X007578Y008351D01*
X007828Y008601D01*
X008328Y008601D01*
X008578Y008351D01*
X007578Y008351D02*
X007328Y008601D01*
X006828Y008601D01*
X006578Y008351D01*
X009578Y008351D02*
X009828Y008601D01*
X010328Y008601D01*
X010578Y008351D01*
X010828Y008601D01*
X011328Y008601D01*
X011578Y008351D01*
X011828Y008601D01*
X012328Y008601D01*
X012578Y008351D01*
X012578Y007851D01*
X012328Y007601D01*
X011828Y007601D01*
X011578Y007851D01*
X011328Y007601D01*
X010828Y007601D01*
X010578Y007851D01*
X010328Y007601D01*
X009828Y007601D01*
X009578Y007851D01*
X010578Y007851D02*
X010578Y008351D01*
X011578Y008351D02*
X011578Y007851D01*
X012578Y007851D02*
X012828Y007601D01*
X013328Y007601D01*
X013578Y007851D01*
X013828Y007601D01*
X014328Y007601D01*
X014578Y007851D01*
X014828Y007601D01*
X015328Y007601D01*
X015578Y007851D01*
X015578Y008351D01*
X015328Y008601D01*
X014828Y008601D01*
X014578Y008351D01*
X014578Y007851D01*
X013578Y007851D02*
X013578Y008351D01*
X013828Y008601D01*
X014328Y008601D01*
X014578Y008351D01*
X013578Y008351D02*
X013328Y008601D01*
X012828Y008601D01*
X012578Y008351D01*
X015578Y008351D02*
X015828Y008601D01*
X016328Y008601D01*
X016578Y008351D01*
X016828Y008601D01*
X017328Y008601D01*
X017578Y008351D01*
X017578Y007851D01*
X017328Y007601D01*
X016828Y007601D01*
X016578Y007851D01*
X016328Y007601D01*
X015828Y007601D01*
X015578Y007851D01*
X016578Y007851D02*
X016578Y008351D01*
D11*
X017760Y000601D02*
X012641Y000601D01*
X012641Y006601D01*
X017760Y006601D01*
X017760Y000601D01*
M02*
