G75*
G70*
%OFA0B0*%
%FSLAX24Y24*%
%IPPOS*%
%LPD*%
%AMOC8*
5,1,8,0,0,1.08239X$1,22.5*
%
%ADD10C,0.0680*%
%ADD11C,0.1340*%
%ADD12C,0.0820*%
%ADD13R,0.0820X0.0820*%
%ADD14C,0.0600*%
%ADD15C,0.0730*%
%ADD16C,0.0789*%
D10*
X007078Y004801D02*
X007078Y005401D01*
X008078Y005401D02*
X008078Y004801D01*
X009078Y004801D02*
X009078Y005401D01*
X009078Y007801D02*
X009078Y008401D01*
X008078Y008401D02*
X008078Y007801D01*
X007078Y007801D02*
X007078Y008401D01*
X006078Y008401D02*
X006078Y007801D01*
X005078Y007801D02*
X005078Y008401D01*
X004078Y008401D02*
X004078Y007801D01*
X003078Y007801D02*
X003078Y008401D01*
X002078Y008401D02*
X002078Y007801D01*
X010078Y007801D02*
X010078Y008401D01*
X011078Y008401D02*
X011078Y007801D01*
X012078Y007801D02*
X012078Y008401D01*
X013078Y008401D02*
X013078Y007801D01*
X014078Y007801D02*
X014078Y008401D01*
X015078Y008401D02*
X015078Y007801D01*
X016078Y007801D02*
X016078Y008401D01*
X017078Y008401D02*
X017078Y007801D01*
D11*
X016578Y005851D03*
X016578Y001351D03*
D12*
X014078Y002851D03*
X013078Y003351D03*
X014078Y003851D03*
X013078Y004351D03*
X014078Y004851D03*
X013078Y005351D03*
X013078Y002351D03*
D13*
X014078Y001851D03*
D14*
X003588Y001101D02*
X003068Y001101D01*
X002588Y002101D02*
X002068Y002101D01*
X003068Y003101D02*
X003588Y003101D01*
X003588Y004101D02*
X003068Y004101D01*
X002588Y005101D02*
X002068Y005101D01*
X003068Y006101D02*
X003588Y006101D01*
D15*
X005078Y003101D03*
X006078Y003101D03*
X010078Y001601D03*
X011078Y001601D03*
D16*
X008078Y001455D02*
X008078Y000746D01*
X007078Y000746D02*
X007078Y001455D01*
M02*
