G75*
G70*
%OFA0B0*%
%FSLAX24Y24*%
%IPPOS*%
%LPD*%
%AMOC8*
5,1,8,0,0,1.08239X$1,22.5*
%
%ADD10C,0.0060*%
%ADD11C,0.0050*%
%ADD12R,0.0250X0.0500*%
%ADD13R,0.0100X0.0200*%
%ADD14C,0.0200*%
%ADD15R,0.0750X0.0500*%
%ADD16R,0.0700X0.0300*%
%ADD17R,0.0300X0.0500*%
%ADD18C,0.0080*%
%ADD19C,0.0100*%
D10*
X001178Y000751D02*
X001178Y001101D01*
X001178Y003101D01*
X001178Y003451D01*
X002128Y003451D01*
X002128Y003101D01*
X001178Y003101D01*
X001628Y002901D02*
X001628Y002051D01*
X001778Y002051D01*
X001828Y002101D01*
X001428Y002101D01*
X001478Y002051D01*
X001628Y002051D01*
X001628Y001901D01*
X001578Y001951D01*
X001528Y002001D01*
X001478Y002051D01*
X001528Y002001D02*
X001728Y002001D01*
X001678Y001951D01*
X001578Y001951D01*
X001628Y001901D02*
X001678Y001951D01*
X001728Y002001D02*
X001778Y002051D01*
X002128Y001101D02*
X001178Y001101D01*
X001178Y000751D02*
X002128Y000751D01*
X003078Y000751D01*
X003578Y000751D02*
X003778Y000751D01*
X003778Y003451D01*
X003578Y003451D01*
X003578Y003751D02*
X003778Y003751D01*
X003778Y006451D01*
X003578Y006451D01*
X003078Y006451D02*
X002128Y006451D01*
X001178Y006451D01*
X001178Y006101D01*
X002128Y006101D01*
X002128Y006451D01*
X001178Y006101D02*
X001178Y004101D01*
X002128Y004101D01*
X002128Y003751D01*
X003078Y003751D01*
X003078Y003451D02*
X002128Y003451D01*
X002128Y003751D02*
X001178Y003751D01*
X001178Y004101D01*
X001628Y004901D02*
X001628Y005051D01*
X001778Y005051D01*
X001828Y005101D01*
X001428Y005101D01*
X001478Y005051D01*
X001628Y005051D01*
X001628Y005901D01*
X001478Y005051D02*
X001528Y005001D01*
X001578Y004951D01*
X001678Y004951D01*
X001728Y005001D01*
X001778Y005051D01*
X001728Y005001D02*
X001528Y005001D01*
X001578Y004951D02*
X001628Y004901D01*
X001678Y004951D01*
X006078Y004501D02*
X006078Y005651D01*
X006078Y004501D02*
X006178Y004401D01*
X009978Y004401D01*
X010078Y004501D01*
X010078Y005651D01*
X008586Y001534D02*
X006571Y001534D01*
X002128Y001101D02*
X002128Y000751D01*
D11*
X002353Y000815D02*
X002353Y001116D01*
X002353Y000966D02*
X002804Y000966D01*
X002654Y000815D01*
X001854Y001430D02*
X001779Y001355D01*
X001854Y001430D02*
X001854Y001580D01*
X001779Y001655D01*
X001704Y001655D01*
X001629Y001580D01*
X001554Y001655D01*
X001478Y001655D01*
X001403Y001580D01*
X001403Y001430D01*
X001478Y001355D01*
X001629Y001505D02*
X001629Y001580D01*
X002478Y002865D02*
X002403Y002940D01*
X002403Y003091D01*
X002478Y003166D01*
X002554Y003166D01*
X002629Y003091D01*
X002629Y003016D01*
X002629Y003091D02*
X002704Y003166D01*
X002779Y003166D01*
X002854Y003091D01*
X002854Y002940D01*
X002779Y002865D01*
X002654Y003815D02*
X002804Y003966D01*
X002353Y003966D01*
X002353Y004116D02*
X002353Y003815D01*
X001779Y004355D02*
X001854Y004430D01*
X001854Y004580D01*
X001779Y004655D01*
X001704Y004655D01*
X001629Y004580D01*
X001554Y004655D01*
X001478Y004655D01*
X001403Y004580D01*
X001403Y004430D01*
X001478Y004355D01*
X001629Y004505D02*
X001629Y004580D01*
X002478Y005865D02*
X002403Y005940D01*
X002403Y006091D01*
X002478Y006166D01*
X002554Y006166D01*
X002629Y006091D01*
X002629Y006016D01*
X002629Y006091D02*
X002704Y006166D01*
X002779Y006166D01*
X002854Y006091D01*
X002854Y005940D01*
X002779Y005865D01*
D12*
X001053Y005451D03*
X001053Y004751D03*
X001053Y002451D03*
X001053Y001751D03*
D13*
X001128Y002101D03*
X001128Y005101D03*
D14*
X009898Y004641D03*
D15*
X009803Y005851D03*
X006353Y005851D03*
D16*
X007078Y005951D03*
X008078Y005951D03*
X009078Y005951D03*
D17*
X008578Y005851D03*
X007578Y005851D03*
D18*
X005578Y003351D02*
X005578Y002851D01*
X010578Y001851D02*
X010578Y001351D01*
D19*
X008630Y001672D02*
X008630Y000530D01*
X006527Y000530D01*
X006527Y001672D01*
X008630Y001672D01*
M02*
