%
M48
M72
T01C0.0276
T02C0.0320
T03C0.0394
T04C0.0400
T05C0.0472
T06C0.1260
%
T01
X5078Y3101
X6078Y3101
X10078Y1601
X11078Y1601
T02
X3328Y1101
X2328Y2101
X3328Y3101
X3328Y4101
X2328Y5101
X3328Y6101
T03
X13078Y5351
X14078Y4851
X13078Y4351
X14078Y3851
X13078Y3351
X14078Y2851
X13078Y2351
X14078Y1851
T04
X9078Y5101
X8078Y5101
X7078Y5101
X7078Y8101
X6078Y8101
X5078Y8101
X4078Y8101
X3078Y8101
X2078Y8101
X8078Y8101
X9078Y8101
X10078Y8101
X11078Y8101
X12078Y8101
X13078Y8101
X14078Y8101
X15078Y8101
X16078Y8101
X17078Y8101
T05
X8078Y1101
X7078Y1101
T06
X16578Y1351
X16578Y5851
M30
