G75*
G70*
%OFA0B0*%
%FSLAX24Y24*%
%IPPOS*%
%LPD*%
%AMOC8*
5,1,8,0,0,1.08239X$1,22.5*
%
%ADD10C,0.0000*%
%ADD11C,0.0600*%
%ADD12C,0.0740*%
%ADD13R,0.0740X0.0740*%
%ADD14C,0.0520*%
%ADD15C,0.0650*%
%ADD16C,0.0709*%
%ADD17C,0.0100*%
D10*
X001078Y000101D02*
X001078Y009597D01*
X017949Y009597D01*
X017949Y000101D01*
X001078Y000101D01*
X015948Y001351D02*
X015950Y001401D01*
X015956Y001451D01*
X015966Y001500D01*
X015980Y001548D01*
X015997Y001595D01*
X016018Y001640D01*
X016043Y001684D01*
X016071Y001725D01*
X016103Y001764D01*
X016137Y001801D01*
X016174Y001835D01*
X016214Y001865D01*
X016256Y001892D01*
X016300Y001916D01*
X016346Y001937D01*
X016393Y001953D01*
X016441Y001966D01*
X016491Y001975D01*
X016540Y001980D01*
X016591Y001981D01*
X016641Y001978D01*
X016690Y001971D01*
X016739Y001960D01*
X016787Y001945D01*
X016833Y001927D01*
X016878Y001905D01*
X016921Y001879D01*
X016962Y001850D01*
X017001Y001818D01*
X017037Y001783D01*
X017069Y001745D01*
X017099Y001705D01*
X017126Y001662D01*
X017149Y001618D01*
X017168Y001572D01*
X017184Y001524D01*
X017196Y001475D01*
X017204Y001426D01*
X017208Y001376D01*
X017208Y001326D01*
X017204Y001276D01*
X017196Y001227D01*
X017184Y001178D01*
X017168Y001130D01*
X017149Y001084D01*
X017126Y001040D01*
X017099Y000997D01*
X017069Y000957D01*
X017037Y000919D01*
X017001Y000884D01*
X016962Y000852D01*
X016921Y000823D01*
X016878Y000797D01*
X016833Y000775D01*
X016787Y000757D01*
X016739Y000742D01*
X016690Y000731D01*
X016641Y000724D01*
X016591Y000721D01*
X016540Y000722D01*
X016491Y000727D01*
X016441Y000736D01*
X016393Y000749D01*
X016346Y000765D01*
X016300Y000786D01*
X016256Y000810D01*
X016214Y000837D01*
X016174Y000867D01*
X016137Y000901D01*
X016103Y000938D01*
X016071Y000977D01*
X016043Y001018D01*
X016018Y001062D01*
X015997Y001107D01*
X015980Y001154D01*
X015966Y001202D01*
X015956Y001251D01*
X015950Y001301D01*
X015948Y001351D01*
X015948Y005851D02*
X015950Y005901D01*
X015956Y005951D01*
X015966Y006000D01*
X015980Y006048D01*
X015997Y006095D01*
X016018Y006140D01*
X016043Y006184D01*
X016071Y006225D01*
X016103Y006264D01*
X016137Y006301D01*
X016174Y006335D01*
X016214Y006365D01*
X016256Y006392D01*
X016300Y006416D01*
X016346Y006437D01*
X016393Y006453D01*
X016441Y006466D01*
X016491Y006475D01*
X016540Y006480D01*
X016591Y006481D01*
X016641Y006478D01*
X016690Y006471D01*
X016739Y006460D01*
X016787Y006445D01*
X016833Y006427D01*
X016878Y006405D01*
X016921Y006379D01*
X016962Y006350D01*
X017001Y006318D01*
X017037Y006283D01*
X017069Y006245D01*
X017099Y006205D01*
X017126Y006162D01*
X017149Y006118D01*
X017168Y006072D01*
X017184Y006024D01*
X017196Y005975D01*
X017204Y005926D01*
X017208Y005876D01*
X017208Y005826D01*
X017204Y005776D01*
X017196Y005727D01*
X017184Y005678D01*
X017168Y005630D01*
X017149Y005584D01*
X017126Y005540D01*
X017099Y005497D01*
X017069Y005457D01*
X017037Y005419D01*
X017001Y005384D01*
X016962Y005352D01*
X016921Y005323D01*
X016878Y005297D01*
X016833Y005275D01*
X016787Y005257D01*
X016739Y005242D01*
X016690Y005231D01*
X016641Y005224D01*
X016591Y005221D01*
X016540Y005222D01*
X016491Y005227D01*
X016441Y005236D01*
X016393Y005249D01*
X016346Y005265D01*
X016300Y005286D01*
X016256Y005310D01*
X016214Y005337D01*
X016174Y005367D01*
X016137Y005401D01*
X016103Y005438D01*
X016071Y005477D01*
X016043Y005518D01*
X016018Y005562D01*
X015997Y005607D01*
X015980Y005654D01*
X015966Y005702D01*
X015956Y005751D01*
X015950Y005801D01*
X015948Y005851D01*
D11*
X016078Y007801D02*
X016078Y008401D01*
X015078Y008401D02*
X015078Y007801D01*
X014078Y007801D02*
X014078Y008401D01*
X013078Y008401D02*
X013078Y007801D01*
X012078Y007801D02*
X012078Y008401D01*
X011078Y008401D02*
X011078Y007801D01*
X010078Y007801D02*
X010078Y008401D01*
X009078Y008401D02*
X009078Y007801D01*
X008078Y007801D02*
X008078Y008401D01*
X007078Y008401D02*
X007078Y007801D01*
X006078Y007801D02*
X006078Y008401D01*
X005078Y008401D02*
X005078Y007801D01*
X004078Y007801D02*
X004078Y008401D01*
X003078Y008401D02*
X003078Y007801D01*
X002078Y007801D02*
X002078Y008401D01*
X007078Y005401D02*
X007078Y004801D01*
X008078Y004801D02*
X008078Y005401D01*
X009078Y005401D02*
X009078Y004801D01*
X017078Y007801D02*
X017078Y008401D01*
D12*
X013078Y005351D03*
X014078Y004851D03*
X013078Y004351D03*
X014078Y003851D03*
X013078Y003351D03*
X014078Y002851D03*
X013078Y002351D03*
D13*
X014078Y001851D03*
D14*
X003588Y001101D02*
X003068Y001101D01*
X002588Y002101D02*
X002068Y002101D01*
X003068Y003101D02*
X003588Y003101D01*
X003588Y004101D02*
X003068Y004101D01*
X002588Y005101D02*
X002068Y005101D01*
X003068Y006101D02*
X003588Y006101D01*
D15*
X005078Y003101D03*
X006078Y003101D03*
X010078Y001601D03*
X011078Y001601D03*
D16*
X008078Y001455D02*
X008078Y000746D01*
X007078Y000746D02*
X007078Y001455D01*
D17*
X007078Y001101D02*
X007578Y001601D01*
X007578Y005601D01*
X008078Y005101D01*
X007578Y005601D02*
X006078Y007101D01*
X006078Y008101D01*
X004078Y008101D02*
X004078Y003801D01*
X003378Y003101D01*
X003328Y003101D01*
X002378Y002101D02*
X002328Y002101D01*
X002378Y002101D02*
X002378Y005101D01*
X002328Y005101D01*
X003328Y006101D02*
X003378Y006101D01*
X003578Y006301D01*
X003578Y008601D01*
X004078Y009101D01*
X017078Y009101D01*
X017078Y008101D01*
X016078Y008101D02*
X015278Y008901D01*
X013578Y008901D01*
X013578Y005901D01*
X013078Y005401D01*
X013078Y005351D01*
X009078Y005101D02*
X008078Y004101D01*
X008078Y001101D01*
X006078Y003101D02*
X006078Y004101D01*
X007078Y005101D01*
X012578Y002901D02*
X012578Y007601D01*
X013078Y008101D01*
X014078Y008101D02*
X014578Y007601D01*
X014578Y003401D01*
X014078Y002901D01*
X014078Y002851D01*
X013578Y002801D02*
X013078Y003301D01*
X013078Y003351D01*
X012578Y002901D02*
X013078Y002401D01*
X013078Y002351D01*
X013578Y002801D02*
X013578Y001301D01*
X014478Y001301D01*
X014778Y001601D01*
X014778Y007801D01*
X015078Y008101D01*
X003078Y008101D02*
X002078Y008101D01*
M02*
